<svg id="Group_10507" data-name="Group 10507" xmlns="http://www.w3.org/2000/svg" width="14.5" height="14.71" viewBox="0 0 14.5 14.71">
  <g id="Group_10506" data-name="Group 10506">
    <path id="Path_33626" data-name="Path 33626" d="M20.707,3.1a1.018,1.018,0,0,0,1.02-1.018V1.02a1.02,1.02,0,1,0-2.04,0V2.087A1.018,1.018,0,0,0,20.707,3.1Z" transform="translate(-10.112)" fill="#818181"/>
    <path id="Path_33627" data-name="Path 33627" d="M14.692,3.469H12.638v.519a1.553,1.553,0,1,1-3.106,0V3.469H5.388v.519a1.554,1.554,0,1,1-3.107,0V3.469L.208,3.443V16.414H13.673l1.035,0Zm-1.02,11.912H1.245V7.095H13.673v8.286Z" transform="translate(-0.208 -1.704)" fill="#4e4e4e"/>
    <path id="Path_33628" data-name="Path 33628" d="M6.355,3.1A1.018,1.018,0,0,0,7.376,2.086V1.02a1.02,1.02,0,1,0-2.04,0V2.087A1.016,1.016,0,0,0,6.355,3.1Z" transform="translate(-3.01)" fill="#818181"/>
  </g>
  <rect id="Rectangle_1668" data-name="Rectangle 1668" width="1.632" height="1.441" transform="translate(4.918 6.503)" fill="#818181"/>
  <rect id="Rectangle_1669" data-name="Rectangle 1669" width="1.634" height="1.441" transform="translate(7.557 6.503)" fill="#818181"/>
  <rect id="Rectangle_1670" data-name="Rectangle 1670" width="1.632" height="1.441" transform="translate(10.004 6.503)" fill="#818181"/>
  <rect id="Rectangle_1671" data-name="Rectangle 1671" width="1.632" height="1.44" transform="translate(4.918 8.895)" fill="#818181"/>
  <rect id="Rectangle_1672" data-name="Rectangle 1672" width="1.634" height="1.44" transform="translate(7.557 8.895)" fill="#818181"/>
  <rect id="Rectangle_1673" data-name="Rectangle 1673" width="1.632" height="1.44" transform="translate(10.004 8.895)" fill="#818181"/>
  <rect id="Rectangle_1674" data-name="Rectangle 1674" width="1.632" height="1.44" transform="translate(4.918 11.335)" fill="#818181"/>
  <rect id="Rectangle_1675" data-name="Rectangle 1675" width="1.631" height="1.44" transform="translate(2.326 8.895)" fill="#818181"/>
  <rect id="Rectangle_1676" data-name="Rectangle 1676" width="1.631" height="1.44" transform="translate(2.326 11.335)" fill="#818181"/>
  <rect id="Rectangle_1677" data-name="Rectangle 1677" width="1.634" height="1.44" transform="translate(7.557 11.335)" fill="#818181"/>
  <rect id="Rectangle_1678" data-name="Rectangle 1678" width="1.632" height="1.44" transform="translate(10.004 11.335)" fill="#818181"/>
</svg>
