<svg xmlns="http://www.w3.org/2000/svg" width="95" height="95" viewBox="0 0 95 95">
  <g id="Group_11106" data-name="Group 11106" transform="translate(-498 -404)">
    <path id="Path_4" data-name="Path 4" d="M2.309,1H93.691C94.384,1,95,1.842,95,2.88V93.12c0,1.038-.616,1.88-1.309,1.88H2.309C1.616,95,1,94.158,1,93.12V2.88C1,1.842,1.616,1,2.309,1Z" transform="translate(497.5 403.5)" fill="none" stroke="#bfccd6" stroke-width="1" stroke-dasharray="8 4" fill-rule="evenodd"/>
    <g id="Group_2" data-name="Group 2" transform="translate(529.52 437.4)">
      <path id="Path_5" data-name="Path 5" d="M23.183,21.618c-1.452,0-2.917-.016-4.369,0a.56.56,0,0,1-.546-.546c.016-.9.184-.546,1.092-.546,2.586,0,5.06.008,7.646,0a5.2,5.2,0,0,0,4.915-5.462A4.63,4.63,0,0,0,28.645,10.7a.726.726,0,0,1-.546-.546A5.177,5.177,0,0,0,22.091,5.78c-.955.14-1.962-.036-2.731.546-.233.171-.453.233-.546,0a7.192,7.192,0,0,0-7.1-4.369,7.353,7.353,0,0,0-7.1,6.554,5.044,5.044,0,0,0,0,1.638c.047.256.217.476,0,.546A5.4,5.4,0,0,0,.79,15.611a4.926,4.926,0,0,0,4.915,4.915c2.772.016,5.42.016,8.192,0a.485.485,0,0,1,.546.546c-.023.8.261.546-.546.546H6.252A6.321,6.321,0,0,1-.3,15.064a5.564,5.564,0,0,1,3.277-4.915c.225-.116.546-.282.546-.546a8.483,8.483,0,0,1,7.1-8.739A8.687,8.687,0,0,1,19.36,4.687c.21.326.181.148.546,0A7.144,7.144,0,0,1,29.191,9.6c.062.241.313-.116.546,0a6.466,6.466,0,0,1,3.277,6.554A6.091,6.091,0,0,1,28.1,21.618a7.7,7.7,0,0,1-1.638,0C25.373,21.611,24.27,21.618,23.183,21.618Z" transform="translate(0.316 -0.734)" fill="#0460c1" stroke="#0460c1" stroke-width="0.2"/>
      <path id="Path_6" data-name="Path 6" d="M151.1,147.38c-1.3,1.3-2.627,2.6-3.823,3.823-.241.241-.3.272-.546,0-.614-.66-.629-.463,0-1.092,1.561-1.561,2.808-3.339,4.369-4.915.194-.194.313-.233.546,0,1.693,1.716,3.753,3.769,5.462,5.462.186.186.217-.179,0,0-.249.2-.813,1.092-1.092,1.092s-.321-.867-.546-1.092c-1-.994-1.737-1.737-2.731-2.731l-.546-.546c-.109.148,0,.414,0,.546,0,4.24-.016,8.868,0,13.108,0,.349-.189.016-.546,0-.808-.023-.546.254-.546-.546V147.926C151.084,147.817,151.1,147.644,151.1,147.38Z" transform="translate(-134.701 -134.142)" fill="#0460c1" stroke="#0460c1" stroke-width="0.2"/>
    </g>
  </g>
</svg>
